<svg width="553" height="139" viewBox="0 0 553 139" fill="none" xmlns="http://www.w3.org/2000/svg">
<g clip-path="url(#clip0_2032_1882)">
<path d="M62.2336 91.2073C58.8767 91.0759 57.1983 93.1088 57.1983 97.3058L57.1983 103.807C57.1983 108.414 59.0736 110.715 62.8243 110.709C64.7181 110.672 66.6028 110.468 68.4504 110.102C70.7229 109.611 73.0493 109.336 75.3892 109.281C76.8959 109.265 78.3812 109.594 79.6973 110.236C81.0134 110.879 82.1144 111.812 82.8906 112.942C84.7659 115.377 85.7036 118.627 85.7036 122.693C85.7036 127.158 84.4534 130.745 81.9529 133.454C80.8116 134.762 79.3334 135.815 77.6387 136.529C75.9441 137.242 74.0809 137.594 72.2011 137.558C66.9995 137.454 61.8073 137.117 56.6451 136.548C51.4801 135.974 46.2847 135.634 41.0797 135.53C36.572 135.491 32.0658 135.693 27.5865 136.138L18.3973 137.156C16.7183 137.364 15.0284 137.499 13.3339 137.558C11.4677 137.6 9.61718 137.249 7.93809 136.535C6.259 135.821 4.80046 134.764 3.6852 133.454C1.22849 130.751 0.000137255 127.166 0.000137255 122.701C-0.134324 119.335 0.877453 116.009 2.90693 113.147C4.83854 110.581 7.24524 109.295 10.127 109.289C11.7177 109.356 13.2927 109.596 14.8154 110.004C16.2168 110.385 17.6644 110.622 19.1287 110.709C22.5043 110.709 24.1921 106.105 24.1921 96.8954L24.1921 40.6296C24.2801 37.8483 24.1548 35.065 23.8171 32.2985C23.1888 28.7772 21.6323 27.0207 19.1287 27.0207C17.6322 27.0968 16.152 27.3339 14.7216 27.7266C13.2349 28.1371 11.6936 28.3771 10.1364 28.4407C7.25461 28.4407 4.84792 27.1548 2.91631 24.583C0.882491 21.7222 -0.132657 18.3963 0.000137256 15.0289C0.000137256 10.5637 1.25037 6.94125 3.75084 4.16148C4.87849 2.83853 6.351 1.77064 8.04566 1.04677C9.74032 0.322899 11.6081 -0.0359833 13.4933 2.38608e-05L14.0653 2.38608e-05C14.2879 0.129428 14.5482 0.200607 14.8154 0.205224C19.3969 0.314835 23.9676 0.651905 28.5054 1.21481C33.0986 1.78876 37.726 2.1286 42.3643 2.2326C48.3654 2.2326 54.9291 1.959 62.0554 1.4118C71.0509 0.744215 76.1737 0.407688 77.4239 0.402216C91.039 0.402216 102.066 4.56914 110.505 12.903C118.944 21.2368 123.164 32.1808 123.164 45.735C123.164 59.8199 118.819 70.991 110.13 79.2482C101.441 87.5055 89.6012 91.6368 74.6109 91.6423C73.3607 91.6423 70.9852 91.5739 67.4846 91.4371L62.2336 91.2073ZM57.1983 56.8814C57.1983 60.6735 57.5109 63.0101 58.136 63.891C58.7611 64.772 60.4458 65.2782 63.19 65.4095L66.1906 65.6147C80.9433 66.5669 88.3166 60.2741 88.3103 46.7363C88.3103 33.7349 81.6872 27.2341 68.441 27.2341C66.1677 27.1305 63.8898 27.3382 61.6898 27.8497C59.4393 28.5228 58.0672 30.148 57.5734 32.7253C57.2759 34.7445 57.1506 36.7802 57.1983 38.8156L57.1983 56.8814Z" fill="#242273"/>
<path d="M197.577 27.0206C193.582 27.0206 191.585 30.7443 191.585 38.1917L191.585 95.4753C191.585 100.761 191.772 104.08 192.147 105.432C193.141 108.956 195.264 110.986 198.514 111.522C199.443 111.679 200.383 111.783 201.327 111.834C202.452 111.899 203.7 111.932 205.078 111.932L214.267 111.932C224.388 111.932 229.448 108.545 229.448 101.771C229.429 99.5882 229.178 97.4119 228.698 95.2701C228.157 92.6544 227.844 90.0065 227.76 87.3494C227.615 83.356 229.226 79.466 232.261 76.482C233.656 75.0765 235.387 73.9568 237.332 73.2022C239.276 72.4476 241.387 72.0765 243.513 72.1153C253.515 72.1153 258.516 77.4642 258.516 88.162C258.516 89.385 258.45 90.8706 258.328 92.6353C258.207 94.4 258.01 96.4274 257.766 98.7256C257.522 101.024 257.325 103.059 257.203 104.824C257.081 106.589 257.016 108.001 257.016 109.084C257.016 110.447 257.016 111.801 257.109 113.147C257.203 114.493 257.259 115.864 257.391 117.251C257.635 119.968 257.822 122.094 257.953 123.653C258.085 125.213 258.141 126.116 258.141 126.395C258.141 133.848 254.078 137.571 245.951 137.566C243.832 137.566 241.263 137.5 238.272 137.369C235.28 137.238 231.764 137.024 227.77 136.753C215.78 135.938 198.533 135.533 176.029 135.539C172.653 135.539 169.624 135.64 166.943 135.842C164.261 136.045 161.792 136.318 159.535 136.663C157.285 137.002 155.191 137.276 153.253 137.484C151.355 137.685 149.445 137.787 147.533 137.787C145.677 137.811 143.842 137.434 142.192 136.69C140.542 135.945 139.127 134.856 138.072 133.519C135.634 130.679 134.415 127.092 134.415 122.759C134.415 118.827 135.352 115.618 137.322 113.106C139.291 110.594 141.729 109.347 144.729 109.347C146.207 109.401 147.672 109.616 149.089 109.987C150.519 110.384 151.999 110.621 153.496 110.693C156.872 110.693 158.56 106.088 158.56 96.8788L158.56 40.6295C158.56 31.5624 156.872 27.0261 153.496 27.0206C152 27.0967 150.52 27.3338 149.089 27.7265C147.603 28.1369 146.061 28.377 144.504 28.4406C141.629 28.4406 139.222 27.1547 137.284 24.5828C135.254 21.7212 134.242 18.3954 134.377 15.0287C134.396 5.1463 139.028 0.205088 148.274 0.205088C150.03 0.205088 155.406 0.610016 164.402 1.41987C167.402 1.69347 170.243 1.89594 172.925 2.02726C175.616 2.1668 178.204 2.23246 180.708 2.23246C182.836 2.23246 184.89 2.1668 186.896 2.02726C188.903 1.88773 190.891 1.69074 192.898 1.41987C197.171 0.759983 201.492 0.354127 205.828 0.205088C207.707 0.144663 209.576 0.471159 211.284 1.1583C212.993 1.84545 214.493 2.87405 215.664 4.16134C218.09 6.80432 219.306 10.3611 219.312 14.8317C219.458 18.2506 218.482 21.6345 216.499 24.5828C214.623 27.1492 212.248 28.4351 209.372 28.4406C207.382 28.3707 205.403 28.1316 203.465 27.7265C201.532 27.3284 199.561 27.0921 197.577 27.0206Z" fill="#242273"/>
<path d="M465.452 91.2071C462.089 91.0758 460.404 93.1086 460.398 97.3057L460.398 103.806C460.398 108.414 462.273 110.715 466.024 110.709C467.918 110.671 469.802 110.468 471.65 110.102C473.922 109.611 476.249 109.336 478.589 109.281C480.095 109.265 481.581 109.594 482.897 110.236C484.213 110.879 485.314 111.811 486.09 112.942C487.965 115.377 488.903 118.627 488.903 122.693C488.903 127.158 487.653 130.745 485.152 133.454C484.011 134.762 482.533 135.815 480.838 136.528C479.143 137.242 477.28 137.594 475.4 137.558C470.199 137.454 465.007 137.117 459.844 136.548C454.68 135.974 449.484 135.634 444.279 135.53C439.771 135.49 435.265 135.693 430.786 136.138L421.597 137.155C419.918 137.364 418.228 137.498 416.533 137.558C414.667 137.6 412.817 137.249 411.138 136.535C409.458 135.821 408 134.764 406.885 133.454C404.447 130.745 403.228 127.158 403.228 122.693C403.093 119.326 404.105 116.001 406.134 113.139C408.066 110.573 410.473 109.287 413.355 109.281C414.945 109.347 416.52 109.587 418.043 109.995C419.444 110.377 420.892 110.614 422.356 110.701C425.732 110.701 427.42 106.096 427.42 96.887L427.42 40.6295C427.508 37.8482 427.382 35.0649 427.045 32.2984C426.416 28.7771 424.86 27.0206 422.356 27.0206C420.86 27.0967 419.38 27.3338 417.949 27.7265C416.462 28.1369 414.921 28.377 413.364 28.4406C410.488 28.4406 408.082 27.1547 406.144 24.5828C404.1 21.7248 403.075 18.3987 403.2 15.0287C403.2 10.5636 404.45 6.94113 406.95 4.16135C408.08 2.83612 409.555 1.76682 411.253 1.04284C412.952 0.318867 414.823 -0.0387448 416.711 -9.95342e-05L417.274 -9.95342e-05C417.496 0.130573 417.757 0.201871 418.024 0.2051C422.606 0.314712 427.176 0.651781 431.714 1.21468C436.311 1.78896 440.941 2.1288 445.582 2.23247C451.584 2.23247 458.147 1.95887 465.274 1.41168C474.269 0.744092 479.392 0.407564 480.642 0.402092C494.257 0.402092 505.284 4.56902 513.723 12.9029C522.162 21.2367 526.382 32.1807 526.382 45.7348C526.382 59.8198 522.037 70.9908 513.348 79.2481C504.659 87.5053 492.819 91.6367 477.829 91.6421C476.579 91.6421 474.203 91.5737 470.703 91.4369L465.452 91.2071ZM460.398 56.8813C460.398 60.6734 460.71 63.0099 461.335 63.8909C461.96 64.7719 463.645 65.2781 466.389 65.4094L469.39 65.6146C484.143 66.5667 491.516 60.2739 491.51 46.7362C491.51 33.7348 484.887 27.234 471.64 27.234C469.367 27.1304 467.089 27.3381 464.889 27.8496C462.639 28.5227 461.267 30.1479 460.773 32.7252C460.475 34.7443 460.35 36.7801 460.398 38.8155L460.398 56.8813Z" fill="#242273"/>
<path d="M247.781 50.3561L247.641 50.3561C246.858 50.4561 246.058 50.354 245.34 50.0625C244.623 49.7709 244.018 49.3025 243.599 48.7145C242.286 47.1468 241.555 45.1112 240.72 43.3301C239.749 41.3022 239.005 39.1966 238.498 37.0428C237.567 32.5896 237.535 28.028 238.404 23.5652C239.398 17.8197 241.827 12.1561 246.122 7.71561C250.416 3.27509 256.698 0.197092 263.347 0.000100382C266.123 -0.0820832 268.886 0.376748 271.435 1.34343C273.984 2.31011 276.256 3.76049 278.087 5.58974C282.259 9.9564 281.838 15.3326 278.612 20.2C276.165 23.91 272.451 26.8484 268.644 29.5407C264.837 32.2329 260.834 34.7692 257.571 37.9621C255.467 39.9015 253.609 42.0343 252.029 44.3233C250.847 46.1701 250.51 49.757 247.781 50.3561Z" fill="#242273"/>
<path fill-rule="evenodd" clip-rule="evenodd" d="M379.938 18.0247C381.265 19.691 382.486 21.42 383.595 23.2039C388.527 31.1082 391.35 39.9482 393.291 48.7882C397.444 67.7159 397.651 87.9075 388.49 105.522C379.329 123.136 359.3 137.517 336.627 138.058C320.949 138.428 305.449 132.181 294.91 122.356C284.37 112.532 278.463 99.4398 277.094 86.1839C274.468 60.8048 287.455 32.7498 308.14 14.4378C318.605 5.17098 333.551 -1.39541 348.554 0.246185C361.41 1.64154 372.671 8.91382 379.938 18.0247ZM323.994 49.757C327.06 42.8295 332.273 33.2343 340.375 30.0579C341.341 29.6659 342.409 29.5072 343.469 29.5982C353.089 30.5175 353.146 51.2509 353.146 57.6039C353.145 57.9901 353.144 58.3763 353.143 58.7625C353.126 65.7142 353.108 72.666 352.939 79.6177C352.564 94.8025 347.567 112.294 335.321 112.179C323.075 112.064 320.852 98.6685 319.915 90.4605C318.367 76.9747 318.292 62.6025 323.994 49.757Z" fill="#242273"/>
<path d="M535.713 138.067C529.365 138.067 524.02 134.595 518.394 132.411C514.4 130.86 509.955 129.128 509.955 124.318C509.955 119.205 515.253 117.276 519.51 115.725C524.695 113.829 529.899 110.562 535.676 110.562C544.837 110.562 552.263 116.718 552.263 124.318C552.263 131.919 544.874 138.067 535.713 138.067Z" fill="#242273"/>
</g>
<defs>
<clipPath id="clip0_2032_1882">
<rect width="552.3" height="138.067" fill="white"/>
</clipPath>
</defs>
</svg>
